<?xml version="1.0" encoding="UTF-8" standalone="no"?>
<!DOCTYPE svg PUBLIC "-//W3C//DTD SVG 1.1//EN"
 "http://www.w3.org/Graphics/SVG/1.1/DTD/svg11.dtd">
<!-- Generated by graphviz version 2.38.0 (20140413.2041)
 -->
<!-- Title: models_diagram Pages: 1 -->
<svg width="153pt" height="442pt"
 viewBox="0.00 0.00 153.46 442.00" xmlns="http://www.w3.org/2000/svg" xmlns:xlink="http://www.w3.org/1999/xlink">
<g id="graph0" class="graph" transform="scale(1 1) rotate(0) translate(4 438)">
<title>models_diagram</title>
<polygon fill="white" stroke="none" points="-4,4 -4,-438 149.459,-438 149.459,4 -4,4"/>
<!-- Search -->
<g id="node1" class="node"><title>Search</title>
<path fill="none" stroke="black" d="M18.2241,-0.5C18.2241,-0.5 127.235,-0.5 127.235,-0.5 133.235,-0.5 139.235,-6.5 139.235,-12.5 139.235,-12.5 139.235,-172.5 139.235,-172.5 139.235,-178.5 133.235,-184.5 127.235,-184.5 127.235,-184.5 18.2241,-184.5 18.2241,-184.5 12.2241,-184.5 6.22412,-178.5 6.22412,-172.5 6.22412,-172.5 6.22412,-12.5 6.22412,-12.5 6.22412,-6.5 12.2241,-0.5 18.2241,-0.5"/>
<text text-anchor="middle" x="72.7295" y="-169.3" font-family="Times,serif" font-size="14.00">Search</text>
<polyline fill="none" stroke="black" points="6.22412,-162.5 139.235,-162.5 "/>
<text text-anchor="start" x="14.2241" y="-147.3" font-family="Times,serif" font-size="14.00">id :integer</text>
<text text-anchor="start" x="14.2241" y="-133.3" font-family="Times,serif" font-size="14.00">search_terms :string</text>
<text text-anchor="start" x="14.2241" y="-119.3" font-family="Times,serif" font-size="14.00">user_id :integer</text>
<text text-anchor="start" x="14.2241" y="-105.3" font-family="Times,serif" font-size="14.00">created_at :datetime</text>
<text text-anchor="start" x="14.2241" y="-91.3" font-family="Times,serif" font-size="14.00">updated_at :datetime</text>
<text text-anchor="start" x="14.2241" y="-77.3" font-family="Times,serif" font-size="14.00">location :string</text>
<text text-anchor="start" x="14.2241" y="-63.3" font-family="Times,serif" font-size="14.00">language :string</text>
<text text-anchor="start" x="14.2241" y="-49.3" font-family="Times,serif" font-size="14.00">screen_name :string</text>
<text text-anchor="start" x="14.2241" y="-35.3" font-family="Times,serif" font-size="14.00">publish_date :string</text>
<text text-anchor="start" x="14.2241" y="-21.3" font-family="Times,serif" font-size="14.00">latitude :float</text>
<text text-anchor="start" x="14.2241" y="-7.3" font-family="Times,serif" font-size="14.00">longitude :float</text>
</g>
<!-- User -->
<g id="node2" class="node"><title>User</title>
<path fill="none" stroke="black" d="M12,-221.5C12,-221.5 133.459,-221.5 133.459,-221.5 139.459,-221.5 145.459,-227.5 145.459,-233.5 145.459,-233.5 145.459,-421.5 145.459,-421.5 145.459,-427.5 139.459,-433.5 133.459,-433.5 133.459,-433.5 12,-433.5 12,-433.5 6,-433.5 0,-427.5 0,-421.5 0,-421.5 0,-233.5 0,-233.5 0,-227.5 6,-221.5 12,-221.5"/>
<text text-anchor="middle" x="72.7295" y="-418.3" font-family="Times,serif" font-size="14.00">User</text>
<polyline fill="none" stroke="black" points="0,-411.5 145.459,-411.5 "/>
<text text-anchor="start" x="8" y="-396.3" font-family="Times,serif" font-size="14.00">id :integer</text>
<text text-anchor="start" x="8" y="-382.3" font-family="Times,serif" font-size="14.00">name :string</text>
<text text-anchor="start" x="8" y="-368.3" font-family="Times,serif" font-size="14.00">nickname :string</text>
<text text-anchor="start" x="8" y="-354.3" font-family="Times,serif" font-size="14.00">email :string</text>
<text text-anchor="start" x="8" y="-340.3" font-family="Times,serif" font-size="14.00">uid :string</text>
<text text-anchor="start" x="8" y="-326.3" font-family="Times,serif" font-size="14.00">location :string</text>
<text text-anchor="start" x="8" y="-312.3" font-family="Times,serif" font-size="14.00">image :string</text>
<text text-anchor="start" x="8" y="-298.3" font-family="Times,serif" font-size="14.00">token :string</text>
<text text-anchor="start" x="8" y="-284.3" font-family="Times,serif" font-size="14.00">token_expiry :datetime</text>
<text text-anchor="start" x="8" y="-270.3" font-family="Times,serif" font-size="14.00">created_at :datetime</text>
<text text-anchor="start" x="8" y="-256.3" font-family="Times,serif" font-size="14.00">updated_at :datetime</text>
<text text-anchor="start" x="8" y="-242.3" font-family="Times,serif" font-size="14.00">provider :string</text>
<text text-anchor="start" x="8" y="-228.3" font-family="Times,serif" font-size="14.00">secret :string</text>
</g>
<!-- User&#45;&gt;Search -->
<g id="edge1" class="edge"><title>User&#45;&gt;Search</title>
<path fill="none" stroke="#683ed2" d="M72.7295,-213.236C72.7295,-207.116 72.7295,-200.985 72.7295,-194.909"/>
<ellipse fill="none" stroke="#683ed2" cx="72.7295" cy="-217.248" rx="4" ry="4"/>
<polygon fill="#683ed2" stroke="#683ed2" points="72.7296,-194.749 77.2295,-184.749 72.7295,-189.749 72.7295,-184.749 72.7295,-184.749 72.7295,-184.749 72.7295,-189.749 68.2295,-184.749 72.7296,-194.749 72.7296,-194.749"/>
</g>
</g>
</svg>
